<svg width="1024" height="1024" viewBox="0 0 1024 1024" fill="none" xmlns="http://www.w3.org/2000/svg">
<g clip-path="url(#clip0_9371_55)">
<rect width="1024" height="1024" rx="240" fill="white"/>
<path d="M190.246 868.179C181.249 866.477 166.174 855.535 161.067 847.025C154.502 836.326 152.557 823.682 155.961 811.281C158.636 801.554 182.465 776.752 432.187 527.03C585.376 373.598 705.496 251.533 705.496 249.102C705.496 245.454 702.091 244.968 669.751 244.968H633.764L428.297 450.192C202.647 675.599 216.75 663.198 190.732 659.307C176.872 657.362 160.095 642.043 156.204 627.697C152.557 614.567 152.557 407.64 156.204 394.51C158.393 386.485 170.307 373.355 224.288 318.888C260.275 282.901 289.697 251.29 289.697 249.102C289.697 245.454 285.077 244.968 240.093 244.968C184.653 244.968 178.818 243.752 166.417 229.406C145.748 206.063 151.341 178.343 180.277 159.134C185.626 155.486 198.513 155 303.314 155H420.272L429.999 162.052C446.047 173.723 451.397 183.206 451.397 199.984C451.397 212.385 450.181 216.276 443.616 225.515C439.482 231.594 392.553 279.739 339.788 332.505L243.497 428.552V448.247C243.497 478.885 245.929 497.851 250.063 497.851C252.008 497.851 328.602 422.959 420.272 331.289C536.501 215.303 589.996 163.267 597.291 159.863C607.26 155 610.664 155 722.76 155.486L838.016 156.216L846.77 162.052C860.873 171.778 866.952 182.963 867.195 199.984C867.195 213.114 866.222 216.032 858.198 226.731C853.335 233.54 728.839 359.009 581.729 505.875C434.376 652.499 314.013 773.834 314.013 775.05C314.013 776.509 328.602 777.482 352.189 777.482H390.121L590.969 576.634C701.362 465.998 795.95 372.869 800.813 369.464C811.755 362.413 831.937 361.44 843.852 367.762C854.794 373.355 865.25 388.917 868.411 404.479C870.356 413.233 870.842 450.679 870.356 520.222C869.626 622.834 869.627 623.077 863.791 634.262C860.143 641.8 837.044 666.602 795.221 708.425C760.449 742.953 732.243 772.862 732.243 774.321C732.243 776.752 743.671 777.482 781.604 777.482C828.047 777.725 831.451 777.968 841.663 783.317C856.01 790.612 866.222 805.202 867.681 820.521C869.14 835.596 861.116 851.158 846.77 861.371L836.314 868.666H601.911L592.914 862.587C569.571 846.781 563.492 820.521 578.568 799.123C582.701 793.287 629.387 745.142 682.153 692.377L778.443 596.33V559.37C778.443 531.407 777.713 522.167 775.525 522.167C773.823 522.167 697.471 597.059 605.801 688.729C514.131 780.4 434.862 858.21 429.512 861.857L419.786 868.666L307.934 868.909C246.415 869.152 193.407 868.909 190.246 868.179Z" fill="#008700"/>
</g>
<defs>
<clipPath id="clip0_9371_55">
<rect width="1024" height="1024" fill="white"/>
</clipPath>
</defs>
</svg>
